<svg xmlns="http://www.w3.org/2000/svg" aria-hidden="true" style="position:absolute;width:0;height:0;overflow:hidden">
  <defs>
    <symbol id="icon-menu" viewBox="0 0 32 32">
      <path d="M3.2 7.467h-.015a1.067 1.067 0 0 0 0 2.134h25.63a1.067 1.067 0 0 0 0-2.134H3.2zm0 7.466h-.015a1.067 1.067 0 0 0 0 2.134h25.63a1.067 1.067 0 0 0 0-2.134H3.2zm0 7.467h-.015a1.067 1.067 0 0 0 0 2.134h25.63a1.067 1.067 0 0 0 0-2.134H3.2z"/>
    </symbol>
    <symbol id="icon-facebook" viewBox="0 0 32 32">
      <path d="M24 3.5H8a4 4 0 0 0-4 4v16a4 4 0 0 0 4 4h8.5V19h-3v-3.5h3V13c0-3.5 2-5.5 5-5.5 1.567 0 2.5.5 2.5.5v3h-2c-1.43 0-2 1.046-2 2v2.5h3.5L23 19h-3v8.5h4a4 4 0 0 0 4-4v-16a4 4 0 0 0-4-4z"/>
    </symbol>
    <symbol id="icon-instagram" viewBox="0 0 32 32">
      <path d="M10.79 3.5c-4.019 0-7.29 3.272-7.29 7.293v10.416c0 4.02 3.272 7.291 7.293 7.291h10.416c4.02 0 7.291-3.272 7.291-7.293V10.79c0-4.019-3.272-7.29-7.293-7.29H10.79zm12.71 4a1 1 0 1 1 0 2 1 1 0 0 1 0-2zm-7.5 2c3.585 0 6.5 2.915 6.5 6.5s-2.916 6.5-6.5 6.5c-3.585 0-6.5-2.916-6.5-6.5s2.915-6.5 6.5-6.5zm0 2c-2.486 0-4.5 2.014-4.5 4.5s2.014 4.5 4.5 4.5 4.5-2.014 4.5-4.5-2.014-4.5-4.5-4.5z"/>
    </symbol>
    <symbol id="icon-mail" viewBox="0 0 32 32">
      <path d="M8.96 2.56a6.41 6.41 0 0 0-6.4 6.4v14.08a6.41 6.41 0 0 0 6.4 6.4h14.08a6.41 6.41 0 0 0 6.4-6.4V8.96a6.41 6.41 0 0 0-6.4-6.4H8.96zm-.64 7.68h15.36c.115 0 .224.013.326.045l-6.291 6.285a2.433 2.433 0 0 1-3.436 0l-6.285-6.285c.102-.032.211-.045.326-.045zm-1.235.954L11.898 16l-4.813 4.806a1.084 1.084 0 0 1-.045-.326v-8.96c0-.115.013-.224.045-.326zm17.83 0c.032.102.045.211.045.326v8.96c0 .115-.013.224-.045.326L20.096 16l4.819-4.806zM12.8 16.902l.57.576a3.702 3.702 0 0 0 2.624 1.081 3.69 3.69 0 0 0 2.624-1.081l.576-.576 4.813 4.813a1.084 1.084 0 0 1-.326.045H8.321c-.115 0-.224-.013-.326-.045l4.806-4.813z"/>
    </symbol>
    <symbol id="icon-phone" viewBox="0 0 32 32">
      <path d="M8.96 2.554a6.41 6.41 0 0 0-6.4 6.4v14.08a6.41 6.41 0 0 0 6.4 6.4h14.08a6.41 6.41 0 0 0 6.4-6.4V8.954a6.41 6.41 0 0 0-6.4-6.4H8.96zm2.564 5.147c.402.017.771.244.994.591l1.159 1.81a2.4 2.4 0 0 1 .082 2.435l-.938 1.334a1.28 1.28 0 0 0-.134 1.23c.265.634.779 1.607 1.691 2.52s1.886 1.426 2.52 1.691c.407.17.869.12 1.23-.134l1.334-.938a2.405 2.405 0 0 1 2.435.082l1.81 1.159c.348.223.574.592.591.994.099 2.281-1.669 3.205-2.183 3.205-.356 0-4.634.486-9.459-4.339s-4.339-9.103-4.339-9.459c0-.514.924-2.281 3.205-2.183z"/>
    </symbol>
    <symbol id="icon-coffee-bean" viewBox="0 0 32 32">
      <path d="M20.504 4.597c.399.129.67.5.672.92.008.184.009.334.009.334s-.006 5.111-6.058 9.816c-2.462 1.914-4.597 5.025-5.155 7.934a.975.975 0 0 1-1.768.363c-1.725-2.556-3.681-7.332-.419-12.988 2.941-5.1 8.371-7.708 12.72-6.379zm-1.288 1.607c-3.742-.464-7.412 1.809-9.7 5.772-1.817 3.148-1.467 6.723-.576 9.087a14.648 14.648 0 0 1 4.959-6.976c3.553-2.762 4.935-6.36 5.317-7.884zM11.98 27.109a1.01 1.01 0 0 1-.703-.958 8.65 8.65 0 0 1-.009-.305s.006-5.111 6.058-9.816c2.44-1.897 4.559-4.97 5.139-7.855a1.015 1.015 0 0 1 1.838-.36c1.712 2.575 3.592 7.31.365 12.906-2.934 5.087-8.344 7.695-12.688 6.389zm1.256-1.616c3.742.464 7.412-1.809 9.7-5.772 1.817-3.148 1.467-6.723.576-9.087a14.648 14.648 0 0 1-4.959 6.976c-3.553 2.762-4.935 6.36-5.317 7.884z"/>
    </symbol>
    <symbol id="icon-coffee-machine" viewBox="0 0 32 32">
      <path d="M5.464 6.987v22.104c0 .016 0 .031-.003.044h5.992v-2.31h9.565v2.31h5.414c0-.013-.003-.023-.003-.036V6.987h-1.711v2.719l-5.576.003v3.198c0 .13-.104.234-.234.234h-1.104v1.445h-1.018v-1.445h-1.161v1.445h-1.018v-1.445H13.5a.233.233 0 0 1-.234-.234V9.706H7.75V6.987H5.464zm5.835 10.008h9.943a.684.684 0 0 1 .685.685v.31h1.464a1.224 1.224 0 0 1 .893.388c.208.221.336.516.336.839v1.435c0 .385-.159.737-.411.992a1.395 1.395 0 0 1-.992.411h-1.589c-.534 1.599-1.724 2.701-3.133 3.273-.727.297-1.516.448-2.305.453s-1.576-.141-2.297-.44c-1.849-.763-3.281-2.513-3.281-5.323v-2.339a.69.69 0 0 1 .201-.484.698.698 0 0 1 .487-.201zm12.092 1.812h-1.438v2.438h1.263a.596.596 0 0 0 .591-.591v-1.435a.4.4 0 0 0-.107-.276l-.016-.016a.43.43 0 0 0-.294-.12zm-2.276-.997h-9.69v2.214c0 2.427 1.211 3.927 2.776 4.573a5.109 5.109 0 0 0 1.987.378 5.412 5.412 0 0 0 2.003-.396c1.635-.664 2.927-2.174 2.927-4.453v-2.315h-.003zM4.591 29.138c-.003-.016-.003-.029-.003-.044V6.987H1.361a.406.406 0 0 1-.406-.406V.407c0-.224.182-.406.406-.406h29.273c.224 0 .406.182.406.406v6.174a.406.406 0 0 1-.406.406h-3.326v22.115c0 .013 0 .023-.003.036h3.328V32H1.36v-2.862h3.229zM13 1.667h6.521c.115 0 .208.102.208.229v3.13c0 .128-.094.229-.208.229H13c-.115 0-.208-.102-.208-.229v-3.13c0-.128.094-.229.208-.229zm5.674 8.276h-4.94v2.729h4.943V9.943h-.003zM30.167.875H1.831v5.234h28.336V.875z"/>
    </symbol>
    <symbol id="icon-coffee-maker" viewBox="0 0 32 32">
      <path d="M8.62 0C5.615 0 3.16 2.44 3.16 5.44s2.455 5.44 5.46 5.44h16c3.005 0 5.46-2.44 5.46-5.44S27.625 0 24.62 0zm20.06 10.8a6.701 6.701 0 0 1-4.06 1.36h-4.14v14.08h-3.96c.21-.297.418-.652.62-1.08.775-1.64 1.42-4.295 1.42-8.52a.642.642 0 0 0-.64-.64H5.7a.637.637 0 0 0-.58.64c0 .508.003.997.02 1.46a2.734 2.734 0 0 0-.98-.18c-1.587 0-2.88 1.293-2.88 2.88s1.292 2.88 2.88 2.88h1.82c.175.57.36 1.055.56 1.48.202.427.41.782.62 1.08H4.8c-.882 0-1.6.718-1.6 1.6v2.56A1.6 1.6 0 0 0 4.8 32h24.32a2.243 2.243 0 0 0 2.24-2.24v-2.88c0-.035.005-.065 0-.1zm-18.44 1.36v1.92h3.2v-1.92zm-3.78 5.12h10.76c-.073 3.64-.62 6.008-1.24 7.32-.33.7-.662 1.137-.92 1.38-.195.183-.367.242-.38.26H9c-.012-.017-.185-.078-.38-.26-.258-.242-.59-.68-.92-1.38-.62-1.313-1.168-3.68-1.24-7.32zm-2.3 1.92c.515 0 .883.258 1.1.46.093 1.043.228 1.945.4 2.74h-1.5c-.882 0-1.6-.718-1.6-1.6s.717-1.6 1.6-1.6zm21.44 3.2a1.28 1.28 0 1 1 0 2.56 1.28 1.28 0 0 1 0-2.56z"/>
    </symbol>
    <symbol id="icon-coffee-pot" viewBox="0 0 32 32">
      <path d="M15.856 0c-.604 0-1.093.49-1.093 1.093v.815a.758.758 0 0 1 .303-.086h1.535c.109 0 .216.034.315.081l.035.026v-.836c0-.604-.49-1.093-1.093-1.093zM26.865 11.246l-1.261-1.694a1.095 1.095 0 0 0-.877-.441h-1.214l-.255 2.187h.919l.717.963v6.553l-1.23 1.178a1.093 1.093 0 1 0 1.513 1.579l1.567-1.501c.215-.206.337-.491.337-.79v-7.382c0-.235-.076-.464-.216-.653zM7.925 7.211c-.029.003-.058.006-.088.006H5.822l-.904.745 3.518 3.798-.512-4.548zM21.989 30.656l-1.761-8.238a.74.74 0 0 1-.217.033h-8.383a.743.743 0 0 1-.268-.051l-1.765 8.251a1.117 1.117 0 0 0 1.074 1.35h10.246c.333 0 .644-.159.854-.419s.29-.6.22-.926zM16.435 3.28h-1.204l-5.136 2.478h11.476zM9.393 7.216l1.321 11.744.67 2.075a.738.738 0 0 1 .245-.043h8.383c.071 0 .14.011.205.03l.656-1.837 1.394-11.97H9.394z"/>
    </symbol>
    <symbol id="icon-logo-small" viewBox="0 0 32 32">
      <path d="M13.247 26.836v-.648h1.232l-3.955-6.838h-.064v6.838h2.107v.648H1.127v-.648h2.107V6.257H1.127V5.61h5.671c1.296 0 2.463-.13 3.662-.39v13.611l4.634-3.306c.649-.454.811-.616.811-.842 0-.292-.195-.357-.811-.357h-.388v-.649h5.639v.649h-1.264c-.745 0-.94 0-1.361.162a4.898 4.898 0 0 0-.616.259c-.259.129-.421.259-.811.518l6.45 10.921h.583v.648zM30.517 12.413h-7.192V5.221h7.192z"/>
    </symbol>
    <symbol id="icon-logo-full" viewBox="0 0 32 32">
      <path d="M28.833 21.086h1.175V9.877h-1.175z"/>
      <path d="M29.797 9.877H2.438v1.175h27.359zM9.176 15.066h-.343v-1.112h.01l.643 1.112h-.2v.105h1.639v-.105h-.095L9.781 13.29c.063-.042.089-.063.132-.084a.763.763 0 0 1 .1-.042c.069-.026.1-.026.221-.026h.206v-.106h-.917v.106h.063c.1 0 .132.01.132.058 0 .037-.026.063-.132.137l-.754.538v-2.214a2.76 2.76 0 0 1-.595.063h-.923v.105h.343v3.242h-.343v.105h1.861zM3.154 19.202h-.343V18.09h.01l.643 1.112h-.2v.105h1.639v-.105h-.095l-1.049-1.776c.063-.042.089-.063.132-.084a.763.763 0 0 1 .1-.042c.068-.026.1-.026.221-.026h.206v-.106h-.917v.106h.063c.1 0 .132.01.132.058 0 .037-.026.063-.132.137l-.754.538v-2.214a2.76 2.76 0 0 1-.595.063h-.923v.105h.343v3.242h-.343v.105h1.861zM12.307 13.44c0-.253.063-.348.242-.348s.237.079.237.327v1.391c0 .237-.069.327-.258.327-.163 0-.221-.084-.221-.327zm.237 1.803c.907 0 1.486-.416 1.486-1.065 0-.722-.574-1.181-1.481-1.181-.896 0-1.481.459-1.481 1.16 0 .654.585 1.086 1.476 1.086zM15.875 15.069h-.179v-1.613c.111-.111.19-.153.28-.153.095 0 .137.069.137.242v1.523h-.169v.105h1.518v-.105h-.179v-1.613c.089-.105.179-.158.29-.158.032 0 .063.011.09.032.047.037.058.074.058.242v1.497h-.179v.105h1.682v-.105h-.343v-1.365c0-.221-.048-.369-.158-.48-.142-.142-.38-.227-.638-.227-.295 0-.533.095-.828.332-.195-.227-.411-.332-.701-.332-.3 0-.564.105-.859.332v-.364a3.295 3.295 0 0 1-.69.069h-.833v.106h.348v1.929h-.348v.105h1.703zM20.175 12.523c.374 0 .706-.232.706-.49 0-.248-.174-.401-.464-.401-.39 0-.712.232-.712.517 0 .227.185.374.469.374zM21.204 15.069h-.343v-2.103c-.19.042-.453.069-.648.069h-.87v.106h.348v1.929h-.348v.105h1.861zM21.604 14.637c0 .385.232.564.727.564.258 0 .469-.063.622-.185.142-.121.221-.258.343-.601l-.137-.032c-.032.1-.037.126-.058.179-.063.158-.153.258-.232.258-.027 0-.053-.021-.069-.047-.021-.042-.021-.069-.021-.232v-1.402h.343v-.105h-.343v-1.049h-.121c-.048.184-.153.353-.337.538a2.08 2.08 0 0 1-.533.39c-.147.069-.226.09-.443.121v.105h.258zM24.719 13.377c0-.19.079-.279.253-.279.158 0 .232.09.232.279v.611h-.485zm.127 1.866c.29 0 .532-.074.754-.221.163-.111.332-.274.448-.432l-.084-.09c-.232.321-.638.574-.933.574a.27.27 0 0 1-.227-.1c-.069-.084-.084-.174-.084-.422v-.459h1.371c-.09-.654-.58-1.096-1.218-1.096-.796 0-1.392.495-1.392 1.16 0 .622.585 1.086 1.365 1.086zM26.501 14.637c0 .385.232.564.727.564.258 0 .469-.063.622-.185.142-.121.221-.258.343-.601l-.137-.032c-.032.1-.037.126-.058.179-.063.158-.153.258-.232.258-.026 0-.053-.021-.069-.047-.021-.042-.021-.069-.021-.232v-1.402h.343v-.105h-.343v-1.049h-.121c-.048.184-.153.353-.337.538a2.092 2.092 0 0 1-.532.39c-.148.069-.227.09-.443.121v.105h.258zM6.285 17.574c0-.253.063-.348.242-.348s.237.079.237.327v1.391c0 .237-.069.327-.258.327-.163 0-.221-.084-.221-.327zm.237 1.803c.907 0 1.486-.416 1.486-1.065 0-.722-.575-1.181-1.481-1.181-.896 0-1.481.459-1.481 1.16 0 .654.585 1.086 1.476 1.086zM9.163 16.377c0 .253.19.427.469.427.274 0 .469-.19.469-.453 0-.332-.279-.575-.659-.575a.89.89 0 0 0-.574.206c-.258.206-.364.464-.364.854v.332h-.343v.105h.343v1.929h-.343v.105h1.892v-.105h-.374v-1.929h.374v-.105h-.295c-.211 0-.279-.016-.385-.069a.75.75 0 0 1-.374-.627c0-.301.222-.59.459-.59.016 0 .032.005.058.005v.01a.49.49 0 0 0-.353.48zM23.635 19.911h2.141c0 .211.015.2.068.306a.75.75 0 0 0 .627.374c.301 0 .59-.222.59-.459 0-.016-.005-.032-.005-.058h-.01a.49.49 0 0 1-.48.353c-.253 0-.427-.19-.427-.469 0-.274.19-.469.453-.469.332 0 .575.279.575.659a.89.89 0 0 1-.206.574c-.206.258-.464.364-.854.364h-2.472z"/>
      <path d="m26.871 19.546-.019-.013v.005c.006.003.013.005.019.009zM11.439 17.511c0-.19.079-.279.253-.279.158 0 .232.09.232.279v.611h-.485zm1.371.716c-.09-.654-.58-1.096-1.218-1.096-.796 0-1.392.495-1.392 1.16 0 .622.585 1.086 1.365 1.086.29 0 .532-.074.754-.221.163-.111.332-.274.448-.432l-.084-.09c-.232.321-.638.574-.933.574a.274.274 0 0 1-.227-.1c-.069-.084-.084-.174-.084-.422v-.459zM12.968 19.203v.105h1.861v-.105h-.343V17.1c-.19.042-.453.069-.648.069h-.87v.106h.348v1.929zM13.753 16.683c.374 0 .706-.232.706-.49 0-.248-.174-.401-.464-.401-.39 0-.712.232-.712.517 0 .227.184.374.469.374zM16.447 17.099l-.042.005-.148.032a2.408 2.408 0 0 1-.327.032h-1.002v.105h.348v1.929h-.348v.105h1.697v-.105h-.179v-1.629c.127-.111.2-.148.29-.148.105 0 .158.09.158.269v1.508h-.179v.105h1.703v-.105h-.343v-1.386c0-.195-.032-.311-.111-.422-.121-.163-.364-.263-.648-.263-.295 0-.58.105-.87.316zM23.225 17.168h-1.571v.105h.158l.859 2.035h.648l.496-1.233.522 1.233h.654l.596-1.471c.084-.206.142-.311.216-.401.069-.09.116-.121.248-.163v-.105h-.901v.105c.221.016.337.132.337.343 0 .058-.01.111-.042.2l-.237.627-.501-1.17h.284v-.105H23.32v.105h.153l.264.638-.195.532-.496-1.17h.179z"/>
      <path d="M27.948 17.168v.105c.237.026.327.1.327.274a.605.605 0 0 1-.079.258l-.121.237-.438-.77h.222v-.105h-1.713v.105h.137l1.154 2.014-.316.617h-.01a.488.488 0 0 0-.239-.357c.123.103.198.249.198.42s-.083.31-.217.388v.081c.132-.068.247-.203.357-.42l1.165-2.303c.084-.163.121-.221.19-.295a.419.419 0 0 1 .269-.142v-.105z"/>
      <path d="M26.852 20.353c.133-.077.217-.216.217-.388s-.075-.317-.198-.42c-.006-.003-.013-.005-.019-.009z"/>
      <path d="M26.6 20.419c-.279 0-.469-.174-.469-.427a.49.49 0 0 1 .353-.48v-.011h-.002a.498.498 0 0 0-.358.497c0 .285.211.49.501.49a.483.483 0 0 0 .228-.055v-.081a.506.506 0 0 1-.253.066z"/>
      <path d="M26.614 19.482a.479.479 0 0 0-.132.02h.002v.01a.49.49 0 0 0-.353.48c0 .253.19.427.469.427a.496.496 0 0 0 .253-.066v-.816a.528.528 0 0 0-.238-.056zM19.893 17.574c0-.253.063-.348.242-.348s.237.079.237.327v1.391c0 .237-.069.327-.258.327-.163 0-.221-.084-.221-.327zm.237 1.803c.907 0 1.486-.416 1.486-1.065 0-.722-.575-1.181-1.481-1.181-.896 0-1.481.459-1.481 1.16 0 .654.585 1.086 1.476 1.086zM1.293 21.087h23.199v-1.175H1.293zM6.588 15.172H1.294V9.878h5.294z"/>
    </symbol>
  </defs>
</svg>
